<svg width="130" height="90" viewBox="0 0 130 90" fill="none" xmlns="http://www.w3.org/2000/svg">
<g clip-path="url(#clip0_1_451)">
<g clip-path="url(#clip1_1_451)">
<path d="M129.249 55.3418V58.3097C128.842 57.9063 128.404 57.5917 127.939 57.3592C127.474 57.1301 126.992 56.9557 126.493 56.8394C125.994 56.7232 125.488 56.6514 124.968 56.6206C124.448 56.5898 123.935 56.5762 123.426 56.5762C123.231 56.5762 123.036 56.5762 122.845 56.5762C122.653 56.5762 122.458 56.5762 122.267 56.5762L117.586 56.5693H116.204V62.9873H122.78C123.47 62.9873 124.069 62.9565 124.582 62.895C125.095 62.8334 125.532 62.7343 125.895 62.6009C126.257 62.4642 126.551 62.2864 126.777 62.0641C127.003 61.8419 127.173 61.5752 127.293 61.2606V65.9553C127.18 65.6714 127.013 65.4218 126.787 65.203C126.561 64.9876 126.267 64.8064 125.902 64.6628C125.536 64.5192 125.098 64.4097 124.585 64.3379C124.072 64.2661 123.47 64.2285 122.78 64.2285H116.204V72.0587L121.391 72.0518C122.393 72.0484 123.317 72.0142 124.158 71.9527C124.999 71.8911 125.754 71.7885 126.425 71.6552C127.095 71.5184 127.683 71.3406 128.179 71.1252C128.678 70.9098 129.085 70.6431 129.403 70.3319L128.753 73.2999H124.301C123.621 73.2999 122.958 73.2999 122.315 73.2999C121.672 73.2999 121.026 73.2999 120.379 73.2999H114.078C114.122 72.4416 114.156 71.5184 114.187 70.5371C114.214 69.5558 114.238 68.5437 114.252 67.4973C114.266 66.451 114.273 65.3945 114.273 64.3174C114.273 63.2403 114.266 62.1838 114.252 61.1375C114.238 60.0946 114.214 59.0791 114.187 58.0977C114.156 57.1164 114.122 56.1966 114.078 55.335H129.246L129.249 55.3418Z" fill="#EEEBE6"/>
<path d="M94.9741 55.3311H109.817V58.299C109.605 58.0904 109.39 57.9024 109.174 57.7382C108.959 57.5741 108.723 57.4271 108.467 57.3006C108.21 57.174 107.926 57.0646 107.612 56.9757C107.297 56.8834 106.938 56.8116 106.528 56.7501C106.121 56.6919 105.656 56.6475 105.133 56.6201C104.61 56.5928 104.018 56.5757 103.348 56.5723L98.1575 56.5654H97.1009L97.0941 62.9937H103.351C104.042 62.9937 104.64 62.9629 105.153 62.9013C105.666 62.8398 106.104 62.7406 106.466 62.6073C106.829 62.4705 107.123 62.2927 107.349 62.0705C107.574 61.8482 107.745 61.5815 107.865 61.2669V65.9616C107.752 65.6778 107.584 65.4282 107.359 65.2094C107.133 64.9939 106.839 64.8127 106.473 64.6691C106.107 64.5255 105.67 64.4161 105.157 64.3443C104.644 64.2725 104.042 64.2349 103.351 64.2349L97.0941 64.2417V65.1581C97.0941 65.8864 97.1043 66.6113 97.1146 67.3327C97.1248 68.0508 97.1351 68.7586 97.1522 69.4459C97.1693 70.1365 97.1898 70.8033 97.2103 71.4496C97.2343 72.0958 97.2616 72.7147 97.289 73.2994H94.9707C95.0015 72.7113 95.0254 72.0924 95.0494 71.4461C95.0733 70.7965 95.0938 70.1297 95.1075 69.4424C95.1246 68.7552 95.1348 68.0508 95.1451 67.3293C95.1553 66.6078 95.1622 65.883 95.1656 65.1547C95.1656 64.2827 95.1656 63.4142 95.1588 62.5457C95.1519 61.6772 95.1417 60.8258 95.1246 59.9915C95.1075 59.1572 95.087 58.3469 95.063 57.5604C95.0391 56.7774 95.0083 56.032 94.9707 55.3311H94.9741Z" fill="#EEEBE6"/>
<path d="M87.7275 73.3038C87.7925 72.4455 87.8438 71.5223 87.878 70.541C87.9122 69.5597 87.9395 68.5476 87.9532 67.5013C87.9669 66.4549 87.9703 65.3984 87.9635 64.3213C87.9566 63.2477 87.943 62.1877 87.919 61.1414C87.8985 60.0985 87.8711 59.083 87.8335 58.1016C87.7993 57.1203 87.7617 56.2005 87.7207 55.3389H90.1621C90.0971 56.1971 90.0424 57.1203 89.9979 58.1016C89.9535 59.083 89.9227 60.0985 89.8988 61.1414C89.8783 62.1877 89.8646 63.2442 89.8646 64.3213C89.8646 65.3984 89.8748 66.4549 89.8988 67.5013C89.9193 68.5476 89.9535 69.5597 89.9979 70.541C90.0424 71.5223 90.0937 72.4421 90.1621 73.3038H87.7207H87.7275Z" fill="#EEEBE6"/>
<path d="M70.2079 55.3311C70.1806 55.9192 70.1532 56.5346 70.1293 57.1809C70.1053 57.8271 70.0848 58.4973 70.0711 59.1846C70.054 59.8753 70.0404 60.5797 70.0335 61.2977C70.0233 62.0157 70.0199 62.7406 70.0164 63.4724L70.0233 72.065L75.5659 72.0582C76.5678 72.0548 77.491 72.0206 78.3321 71.959C79.1733 71.8975 79.9289 71.7949 80.5991 71.6615C81.2693 71.5248 81.854 71.3504 82.3532 71.1316C82.8524 70.9161 83.2593 70.6494 83.5773 70.3383L82.9276 73.3062H78.4757C77.7953 73.3062 77.132 73.3062 76.4891 73.3062C75.8463 73.3062 75.2001 73.3062 74.5538 73.3062H67.8965C67.9307 72.6053 67.9649 71.8599 67.9888 71.0768C68.0127 70.2938 68.0333 69.4835 68.0504 68.6457C68.0674 67.8114 68.0777 66.9566 68.0845 66.0881C68.0914 65.2196 68.0948 64.3511 68.0914 63.4826C68.088 62.7543 68.0811 62.0294 68.0709 61.3045C68.0606 60.5831 68.0503 59.8787 68.0333 59.1914C68.0162 58.5041 67.9956 57.834 67.9751 57.1877C67.9512 56.5381 67.9238 55.9226 67.8965 55.3345H70.2148L70.2079 55.3311Z" fill="#EEEBE6"/>
<path d="M44.9102 55.3423H63.7367V58.3102C63.3572 57.9854 62.9674 57.7153 62.5708 57.4964C62.1741 57.2776 61.7296 57.0998 61.2475 56.963C60.762 56.8263 60.2183 56.7305 59.6165 56.669C59.0113 56.6108 58.3172 56.5801 57.5308 56.5801H55.2945L55.3014 63.7537C55.3014 64.6017 55.3014 65.4463 55.3116 66.2908C55.3219 67.1354 55.339 67.9629 55.3663 68.7766C55.3903 69.5904 55.4245 70.3734 55.4621 71.136C55.4997 71.895 55.5441 72.6199 55.5954 73.3004H53.1541C53.2019 72.6883 53.2396 72.0215 53.2737 71.2967C53.3045 70.5718 53.3319 69.8024 53.349 68.9921C53.3661 68.1817 53.3797 67.3337 53.3866 66.4515C53.3934 65.5694 53.3934 64.6632 53.3866 63.7366L53.3934 56.5801H51.1264C50.6033 56.5801 50.1212 56.5937 49.6767 56.6177C49.2356 56.6416 48.8253 56.6861 48.4491 56.7408C48.073 56.7989 47.7242 56.8707 47.4063 56.9596C47.0848 57.0485 46.7839 57.1579 46.5001 57.2844C46.2163 57.411 45.9462 57.5614 45.6864 57.7289C45.4265 57.8965 45.17 58.088 44.917 58.3068V55.3389L44.9102 55.3423Z" fill="#EEEBE6"/>
<path d="M26.7718 63.8929H34.937C35.4226 63.8929 35.85 63.7904 36.2159 63.5784C36.5817 63.3698 36.886 63.0928 37.1322 62.7509C37.375 62.409 37.5596 62.0192 37.6862 61.5815C37.8092 61.1438 37.8708 60.6959 37.8708 60.2377C37.8708 59.7795 37.8092 59.3316 37.6896 58.8939C37.5699 58.4563 37.3853 58.0665 37.1425 57.7245C36.8997 57.3826 36.592 57.1057 36.2261 56.8971C35.8568 56.6885 35.426 56.5825 34.9336 56.5825L26.7821 56.5757L26.7752 63.8895L26.7718 63.8929ZM24.6484 73.3028C24.6758 72.7147 24.7031 72.0958 24.7271 71.4495C24.751 70.7999 24.7715 70.1331 24.7852 69.4424C24.8023 68.7517 24.8126 68.0474 24.8228 67.3293C24.8331 66.6113 24.8399 65.8864 24.8433 65.1546C24.8433 64.2827 24.8433 63.4142 24.8365 62.5457C24.8296 61.6772 24.8194 60.8293 24.8023 59.995C24.7852 59.1606 24.7647 58.3537 24.7407 57.5707C24.7168 56.7877 24.686 56.0457 24.6484 55.3447L34.9781 55.3516C35.6072 55.3516 36.1748 55.4405 36.6809 55.6217C37.1869 55.7995 37.6349 56.0457 38.0178 56.3534C38.4008 56.6612 38.7256 57.0202 38.9855 57.4305C39.2453 57.8408 39.4437 58.2785 39.577 58.7401C39.7138 59.2017 39.7856 59.6804 39.7958 60.1693C39.8061 60.6583 39.7548 61.137 39.6386 61.602C39.5223 62.0705 39.3445 62.5115 39.1017 62.9321C38.859 63.3527 38.5546 63.722 38.1854 64.04C37.8161 64.358 37.3818 64.6178 36.8826 64.8127C36.3834 65.0076 35.8226 65.117 35.2003 65.141C35.5046 65.353 35.7748 65.6094 36.0107 65.9103C36.2466 66.2112 36.4723 66.5497 36.6911 66.9293L39.2522 71.3948C39.3821 71.6239 39.512 71.8393 39.6454 72.0377C39.7787 72.236 39.9087 72.4104 40.042 72.5608C40.1754 72.7113 40.3087 72.8309 40.4455 72.9198C40.5823 73.0087 40.7191 73.0566 40.8592 73.0634L41.2969 73.0771V73.3199H39.218C39.0607 73.3199 38.8863 73.2857 38.7051 73.2207C38.5205 73.1523 38.329 73.0464 38.1307 72.9027C37.9323 72.7557 37.7306 72.5677 37.5289 72.3317C37.3271 72.0958 37.1288 71.812 36.9339 71.4769L34.643 67.5208C34.4481 67.1823 34.2429 66.8677 34.0275 66.5805C33.8121 66.2933 33.5728 66.0437 33.3095 65.8351C33.0462 65.6265 32.7521 65.4624 32.4307 65.3427C32.1093 65.223 31.7366 65.1615 31.3194 65.1615V65.1546L26.7718 65.1615C26.7752 65.8898 26.7821 66.6147 26.7923 67.3396C26.8026 68.061 26.8128 68.7654 26.8299 69.4527C26.847 70.14 26.8675 70.8101 26.8881 71.4598C26.912 72.1095 26.9393 72.7284 26.9667 73.3165H24.6484V73.3028Z" fill="#EEEBE6"/>
<path d="M14.5935 66.7279L10.1177 57.6634L5.19047 66.7279H14.5935ZM4.43823 65.5038L10.4356 54.3262C11.2323 55.9401 12.0256 57.5471 12.8189 59.1508C13.6087 60.7544 14.4123 62.3512 15.2295 63.9412C16.0467 65.5312 16.8776 67.1074 17.729 68.6701C18.5804 70.2327 19.466 71.7782 20.3858 73.3032H17.8076C17.476 72.5578 17.0896 71.7337 16.6519 70.8276C16.2142 69.9215 15.7321 68.9504 15.2021 67.9144H4.5579C4.04159 68.8923 3.55263 69.8326 3.08761 70.7387C2.62259 71.6448 2.19518 72.4962 1.80196 73.3032H0C0.33509 72.739 0.683856 72.1475 1.0463 71.5286C1.40874 70.9097 1.77461 70.2703 2.15073 69.6104C2.52685 68.9504 2.90639 68.2734 3.28935 67.5861C3.67231 66.8955 4.05869 66.2013 4.43823 65.5038Z" fill="#EEEBE6"/>
<path d="M109.78 88.9287H109.274L106.214 84.3606V88.9287H105.766V83.752H106.34L109.37 88.3133V83.752H109.817V88.9287H109.78Z" fill="#EEEBE6"/>
<path d="M28.6045 84.1999H26.8607V88.9287H26.4128V84.1999H24.6484V83.752H28.6421V84.1999H28.6045Z" fill="#EEEBE6"/>
<path d="M44.3554 88.9287H40.6387C40.6421 87.2054 40.6421 85.4787 40.6387 83.752H44.27V84.1999H41.0866V86.0121H44.0716V86.46H41.0866V88.4808H44.393V88.9287H44.3554Z" fill="#EEEBE6"/>
<path d="M56.839 86.1831H58.5692C58.6923 86.1831 58.8085 86.1796 58.9145 86.1694C59.024 86.1591 59.1231 86.1454 59.2086 86.1284C59.2975 86.1078 59.3761 86.0839 59.448 86.0566C59.5198 86.0258 59.5813 85.9916 59.6394 85.9506C59.6941 85.9095 59.742 85.8617 59.783 85.8104C59.8241 85.7591 59.8583 85.6975 59.8856 85.6326C59.913 85.5676 59.9335 85.4924 59.9472 85.4103C59.9608 85.3282 59.9677 85.2393 59.9677 85.1402C59.9677 84.9692 59.9403 84.8256 59.889 84.7025C59.8377 84.5828 59.7591 84.4871 59.6531 84.4187C59.5471 84.3469 59.4138 84.2922 59.2496 84.2546C59.0855 84.217 58.8974 84.1999 58.6786 84.1999H56.839V86.1831ZM60.5284 88.9287H60.0908L59.571 87.5508C59.5471 87.4892 59.5198 87.4243 59.4924 87.3627C59.4651 87.3012 59.4377 87.243 59.4069 87.1883C59.3761 87.1336 59.3454 87.0789 59.3112 87.031C59.277 86.9832 59.2394 86.9387 59.2018 86.8943C59.1642 86.8532 59.1231 86.8156 59.0787 86.7849C59.0342 86.7541 58.9863 86.7233 58.9385 86.7028C58.8906 86.6789 58.8359 86.6618 58.7778 86.6481C58.7196 86.6378 58.6581 86.631 58.5897 86.631H56.8425V88.9287H56.3945V83.752H58.7265C58.8325 83.752 58.9419 83.7554 59.0445 83.7656C59.1505 83.7759 59.2531 83.7896 59.3522 83.8101C59.4548 83.8306 59.5505 83.858 59.6428 83.8921C59.7352 83.9263 59.8207 83.9708 59.9027 84.0221C59.9848 84.0734 60.0566 84.1349 60.1216 84.2067C60.1865 84.2785 60.2412 84.3572 60.2891 84.4495C60.337 84.5418 60.3746 84.6444 60.3985 84.7606C60.4224 84.8769 60.4327 85.0034 60.4327 85.1402C60.4327 85.2257 60.4259 85.3111 60.4156 85.3932C60.4054 85.4753 60.3883 85.5539 60.3677 85.6291C60.3472 85.7044 60.3199 85.7762 60.2857 85.8446C60.2515 85.9129 60.2139 85.9779 60.1694 86.036C60.125 86.0976 60.0771 86.1523 60.019 86.2036C59.9643 86.2549 59.8993 86.3027 59.8309 86.3438C59.7625 86.3848 59.6873 86.4224 59.6087 86.4532C59.554 86.4737 59.4958 86.4942 59.4343 86.5079L59.5027 86.566C59.5437 86.6036 59.5813 86.6412 59.6155 86.6754C59.6463 86.7096 59.677 86.7472 59.7044 86.7849C59.7318 86.8225 59.7591 86.8601 59.783 86.9011C59.807 86.9421 59.8275 86.9832 59.848 87.0242C59.8685 87.0687 59.889 87.1131 59.9061 87.161C59.9403 87.2567 59.9848 87.3661 60.0292 87.4824L60.5763 88.9185H60.5216L60.5284 88.9287Z" fill="#EEEBE6"/>
<path d="M77.0574 83.8135L75.0708 86.7096V88.9287H74.6229V86.7096L72.5781 83.752H73.1081L74.8451 86.2412L76.5753 83.752H77.0984L77.0574 83.8135Z" fill="#EEEBE6"/>
<path d="M92.4686 86.9182L91.3573 84.2546L90.2974 86.9182H92.4686ZM93.7132 88.9287H93.2414L92.6122 87.2875H90.1777L90.0409 87.6602L89.887 88.0808L89.7298 88.5013L89.5691 88.9253H89.0938L89.3639 88.221C89.8529 86.9558 90.3384 85.6907 90.8274 84.4256L91.0872 83.752H91.6651C92.3729 85.4753 93.0738 87.202 93.7748 88.9287H93.7166H93.7132Z" fill="#EEEBE6"/>
<path d="M45.0527 32.3127L92.8988 31.7246V33.0615L45.0527 33.9848V32.3127Z" fill="#D7BE68"/>
<path d="M42.3374 14.2174C44.3308 10.398 53.1218 9.66288 56.4043 9.67998C68.4812 9.73468 79.2622 13.1574 90.7134 16.2997V17.8828C79.2759 14.7576 68.4368 11.4067 56.3975 11.352C53.539 11.3383 45.2848 11.8957 43.7838 15.0585L42.334 14.2208L42.3374 14.2174Z" fill="#D7BE68"/>
<path d="M45.0527 24.8862C55.1396 22.1918 76.5512 25.765 88.1289 26.6779V28.0183C76.6811 27.1224 54.6028 23.6724 45.0527 26.5206V24.8828V24.8862Z" fill="#D7BE68"/>
<path d="M45.0527 39.2643C52.076 39.8661 57.3998 40.444 64.3649 39.7533C71.6411 39.0318 80.5586 37.4453 87.763 36.2793V37.6744C80.2372 38.895 71.5282 40.5739 64.4093 41.3638C57.6391 42.1126 52.4692 41.5758 45.0527 40.9466V39.2643Z" fill="#D7BE68"/>
<path d="M42.1191 7.31783C42.6423 0.510041 51.7171 0.219402 56.8528 0.612619C63.4418 1.11525 71.0839 3.25914 76.8283 6.12792L75.9906 7.58111H75.9871C70.4308 4.82175 63.0759 2.76677 56.7297 2.28123C52.7907 1.98033 44.3417 1.97007 43.8048 7.31441H42.1226L42.1191 7.31783Z" fill="#D7BE68"/>
<path d="M45.0522 17.6061C55.2349 15.387 76.4618 20.1842 87.995 21.6477V22.9949C76.6327 21.5725 54.7698 16.9701 45.0557 19.3226H45.0488V17.6061H45.0522Z" fill="#D7BE68"/>
</g>
</g>
<defs>
<clipPath id="clip0_1_451">
<rect width="130" height="89" fill="white" transform="translate(0 0.5)"/>
</clipPath>
<clipPath id="clip1_1_451">
<rect width="130" height="89" fill="white" transform="translate(0 0.5)"/>
</clipPath>
</defs>
</svg>
