<svg width="94" height="115" viewBox="0 0 94 115" fill="none" xmlns="http://www.w3.org/2000/svg">
<g clip-path="url(#clip0_1_1021)">
<g clip-path="url(#clip1_1_1021)">
<path d="M52.2532 97.7904C68.706 94.8894 79.6918 79.1999 76.7908 62.7471C73.8897 46.2943 58.2003 35.3085 41.7475 38.2096C25.2947 41.1106 14.3088 56.8 17.2099 73.2528C20.111 89.7056 35.8004 100.691 52.2532 97.7904Z" stroke="#EEEBE6"/>
<path d="M40.3984 30.5775L50.4185 42.5189L35.0669 45.2258L40.3984 30.5775Z" fill="#EEEBE6"/>
</g>
</g>
<path d="M36.1058 0.250249L38.0001 10.9936L36.7411 11.2156L29.3995 3.81265L29.2946 3.83115L30.7819 12.2664L29.481 12.4958L27.5866 1.7524L28.8456 1.53041L36.212 8.95064L36.3169 8.93214L34.8258 0.475942L36.1058 0.250249Z" fill="#EEEBE6"/>
<defs>
<clipPath id="clip0_1_1021">
<rect width="80" height="80" fill="white" transform="translate(0.660156 35.5537) rotate(-9.99999)"/>
</clipPath>
<clipPath id="clip1_1_1021">
<rect width="80" height="80" fill="white" transform="translate(0.660156 35.5537) rotate(-9.99999)"/>
</clipPath>
</defs>
</svg>
