<svg width="17" height="16" viewBox="0 0 17 16" fill="none" xmlns="http://www.w3.org/2000/svg">
<path d="M8.5 12.3636C7.34269 12.3636 6.23278 11.9039 5.41444 11.0856C4.5961 10.2672 4.13636 9.15731 4.13636 8C4.13636 6.84269 4.5961 5.73278 5.41444 4.91444C6.23278 4.0961 7.34269 3.63636 8.5 3.63636C9.65731 3.63636 10.7672 4.0961 11.5856 4.91444C12.4039 5.73278 12.8636 6.84269 12.8636 8C12.8636 9.15731 12.4039 10.2672 11.5856 11.0856C10.7672 11.9039 9.65731 12.3636 8.5 12.3636ZM7.77273 0H9.22727V2.18182H7.77273V0ZM7.77273 13.8182H9.22727V16H7.77273V13.8182ZM2.32909 2.85745L3.35745 1.82909L4.9 3.37164L3.87164 4.4L2.32909 2.85745ZM12.1 12.6284L13.1284 11.6L14.6709 13.1425L13.6425 14.1709L12.1 12.6284ZM13.6425 1.82836L14.6709 2.85745L13.1284 4.4L12.1 3.37164L13.6425 1.82836ZM3.87164 11.6L4.9 12.6284L3.35745 14.1709L2.32909 13.1425L3.87164 11.6ZM16.5 7.27273V8.72727H14.3182V7.27273H16.5ZM2.68182 7.27273V8.72727H0.5V7.27273H2.68182Z" fill="#404040"/>
</svg>
