<svg width="17" height="16" viewBox="0 0 17 16" fill="none" xmlns="http://www.w3.org/2000/svg">
<path d="M8.01151 0C7.42143 0.549819 6.94814 1.21285 6.61987 1.94955C6.29161 2.68624 6.1151 3.4815 6.10087 4.28789C6.08664 5.09428 6.23499 5.89528 6.53706 6.64309C6.83913 7.39091 7.28873 8.07022 7.85905 8.64052C8.42937 9.21081 9.10872 9.66039 9.85658 9.96245C10.6044 10.2645 11.4055 10.4128 12.2119 10.3986C13.0183 10.3844 13.8136 10.2079 14.5504 9.87963C15.2871 9.55139 15.9502 9.07812 16.5 8.48806C16.2453 12.68 12.7651 16 8.50881 16C4.08519 16 0.5 12.415 0.5 7.99239C0.5 3.73635 3.82012 0.256243 8.01151 0Z" fill="#404040"/>
</svg>
