<svg width="180" height="181" viewBox="0 0 180 181" fill="none" xmlns="http://www.w3.org/2000/svg">
<g clip-path="url(#clip0_2_41)">
<g clip-path="url(#clip1_2_41)">
<path d="M87.5124 8.74368L88.4849 8.1896H88.6077C89.0889 9.50298 90.1945 9.67742 90.8394 9.68768C91.4844 9.68768 92.5695 9.43115 92.7026 8.2922C92.8152 7.22508 91.9348 6.65047 90.2969 6.18874C88.4747 5.6757 87.6352 4.52649 87.8502 3.24389C88.0038 2.25886 88.9968 1.08912 90.7371 1.10964C91.6686 1.10964 93.0199 1.41746 93.8594 2.88477L92.8869 3.43884H92.764C92.2522 2.07416 91.3103 1.94077 90.6654 1.94077C89.8464 1.94077 89.1298 2.38198 88.966 3.14128C88.8022 3.96214 89.1094 4.72144 90.9725 5.2037C93.153 5.76804 93.9413 6.92751 93.9106 7.92281C93.8799 9.74923 92.4671 10.5393 90.8497 10.5188C89.9181 10.5085 88.5668 10.4367 87.5124 8.75394V8.74368ZM95.3335 5.95274V5.81936C95.5792 3.67484 97.0636 1.3559 99.7253 1.6432C100.698 1.72529 101.773 2.15625 102.653 3.77746L101.629 4.23919H101.507C101.158 2.8745 100.299 2.53589 99.6638 2.47432C98.1283 2.31015 96.7463 3.85953 96.521 6.03482C96.2958 8.21011 97.2991 10.016 98.8346 10.1802C99.4693 10.252 100.442 9.96471 100.984 8.88733H101.107L101.957 9.64662C100.657 10.9703 99.7048 11.1242 98.7425 11.0011C96.0808 10.7138 95.1083 8.09724 95.3335 5.96301V5.95274ZM104.025 11.5757L102.919 11.3499L104.721 2.41277L105.171 2.50512C105.765 2.63851 106.748 2.71032 107.526 2.83345C109.993 3.2131 110.792 4.64961 110.536 5.94247L110.495 6.15796C110.27 7.29691 109.287 8.14855 107.608 8.14855C107.72 9.18489 109.01 11.6373 109.911 12.6633L109.891 12.7557L108.253 12.4273C106.973 10.4572 106.431 8.7129 106.287 7.9536C105.888 7.87152 105.509 7.72785 104.844 7.59446L104.045 11.5654L104.025 11.5757ZM104.997 6.74283C105.397 6.83517 105.919 6.96856 106.379 7.09169C108.017 7.50212 109.113 7.10196 109.348 5.9117C109.584 4.7317 108.775 3.8698 107.147 3.6338C106.656 3.56198 105.919 3.49015 105.653 3.42859L104.977 6.75309L104.997 6.74283ZM118.766 10.8471C118.121 12.8993 116.412 14.9618 113.863 14.1614C111.314 13.3611 111.109 10.7035 111.754 8.65133L111.805 8.49743C112.44 6.45553 114.119 4.38284 116.668 5.18319C119.207 5.98353 119.452 8.63082 118.818 10.6932L118.766 10.8471ZM114.108 13.3713C115.624 13.8433 116.995 12.4479 117.65 10.3546C118.306 8.26142 117.927 6.44526 116.422 5.97327C114.948 5.51153 113.576 6.78387 112.921 8.87707C112.266 10.9703 112.634 12.9199 114.119 13.3816L114.108 13.3713ZM123.455 7.76891L120.24 15.4132L124.243 17.1063L123.926 17.8553L118.879 15.7211L122.411 7.32768L123.455 7.76891ZM130.078 10.7753L126.239 18.1323L130.099 20.1537L129.72 20.872L124.857 18.3273L129.075 10.252L130.078 10.7753ZM137.429 15.8442L137.889 15.1772L143.264 18.9019L142.803 19.5689L140.582 18.0297L135.873 24.8532L134.941 24.2067L139.65 17.3833L137.429 15.8442ZM146.99 27.9622C145.608 29.6142 143.243 30.8557 141.196 29.1319C139.148 27.4081 139.978 24.8839 141.36 23.232L141.462 23.1088C142.834 21.4671 145.168 20.205 147.226 21.9288C149.273 23.6424 148.475 26.1871 147.103 27.8391L147 27.9622H146.99ZM141.718 28.4958C142.936 29.5116 144.738 28.7523 146.14 27.0695C147.543 25.3867 147.901 23.5706 146.683 22.5445C145.495 21.5492 143.745 22.1956 142.342 23.8681C140.94 25.5509 140.53 27.4902 141.718 28.4855V28.4958ZM147.799 35.0421L154.617 29.0088L155.118 29.5834L153.04 37.8126L158.282 33.1747L158.855 33.8314L152.037 39.8647L151.464 39.2183L153.583 31.0917L148.372 35.7091L147.799 35.0524V35.0421ZM157.555 42.9635L155.825 40.583L153.184 41.332L152.682 40.6445L152.743 40.6035L162.039 37.9152L162.182 38.1101L156.797 46.1443L156.715 46.2059L155.989 45.2003L157.545 42.9532L157.555 42.9635ZM156.654 40.347L158.036 42.2555L160.022 39.3927L156.644 40.347H156.654ZM167.393 46.288L167.833 47.0165L167.771 47.0575L158.261 48.9968L158.138 48.7916L164.178 41.1986L164.26 41.1473L164.895 42.1939L160.391 47.6937L167.393 46.288ZM169.174 49.7151L161.148 53.9323L160.616 52.9165L168.642 48.6993L169.174 49.7151ZM164.148 58.7241C164.383 59.3192 164.987 60.0785 165.939 60.294L167.761 59.5039L166.871 57.4517L167.618 57.1234L168.949 60.2119L166.308 61.3611C164.547 61.043 163.779 59.9349 163.37 59.0011C162.305 56.5385 164.137 54.5171 166.103 53.6655L166.226 53.6142C168.201 52.7523 170.945 52.9165 172.01 55.3791C172.419 56.2615 172.532 57.5133 171.6 58.9806L170.699 58.3136L170.648 58.2008C171.682 57.1439 171.518 56.3128 171.262 55.7279C170.648 54.3017 168.621 53.8707 166.615 54.7429C164.608 55.6151 163.544 57.2465 164.127 58.7343L164.148 58.7241ZM169.01 66.4505L168.109 63.6493L165.366 63.5364L165.11 62.7258L165.181 62.7053L174.856 63.0541L174.927 63.2901L167.301 69.2517L167.208 69.2824L166.83 68.1025L169.01 66.4505ZM168.969 63.6801L169.696 65.9272L172.481 63.8237L168.979 63.6801H168.969ZM175.06 66.6557L175.849 66.4607L177.384 72.8327L176.596 73.0276L175.961 70.3906L167.915 72.3402L167.649 71.2423L175.695 69.2927L175.06 66.6557ZM169.686 76.9986L170.351 81.3184L169.553 81.4415L168.724 76.0135L177.712 74.6283L178.5 79.7792L177.702 79.9024L177.077 75.8596L174.067 76.3214L174.559 79.5638L173.76 79.6869L173.269 76.4445L169.696 76.9986H169.686ZM93.3475 172.434L92.375 172.998H92.2522C91.7608 171.695 90.6449 171.531 90 171.531C89.3551 171.531 88.2699 171.798 88.1573 172.947C88.0549 174.014 88.9456 174.578 90.5938 175.03C92.4262 175.522 93.2656 176.661 93.0711 177.944C92.9278 178.929 91.9553 180.109 90.215 180.109C89.2834 180.109 87.9321 179.822 87.0722 178.375L88.0447 177.811H88.1675C88.6999 179.165 89.6417 179.288 90.2764 179.288C91.0954 179.288 91.812 178.837 91.9553 178.067C92.1191 177.246 91.7915 176.487 89.9283 176.025C87.7478 175.481 86.9493 174.342 86.9596 173.347C86.9698 171.521 88.3723 170.71 89.9898 170.71C90.9213 170.71 92.2726 170.772 93.3475 172.434ZM85.4854 175.348V175.481C85.2397 177.626 83.7553 179.945 81.0937 179.658C80.1314 179.575 79.0463 179.144 78.1659 177.523L79.1896 177.062H79.3124C79.6605 178.426 80.5204 178.765 81.1551 178.826C82.6907 178.991 84.0625 177.441 84.2979 175.266C84.5334 173.091 83.5199 171.285 81.9843 171.121C81.3496 171.049 80.3771 171.336 79.8345 172.413H79.7117L78.862 171.654C80.1621 170.33 81.1142 170.177 82.0765 170.3C84.7381 170.587 85.7106 173.193 85.4854 175.338V175.348ZM76.8043 169.797L77.9099 170.012L76.2106 178.97L75.7601 178.888C75.1562 178.765 74.1836 178.703 73.4056 178.59C70.9282 178.242 70.1195 176.805 70.3652 175.512L70.4061 175.297C70.6211 174.158 71.5834 173.286 73.2725 173.275C73.1497 172.239 71.8291 169.807 70.918 168.791L70.9385 168.699L72.5764 169.017C73.8765 170.977 74.4396 172.711 74.5931 173.47C74.9924 173.542 75.3814 173.686 76.0468 173.809L76.8043 169.828V169.797ZM75.883 174.64C75.4837 174.558 74.9616 174.425 74.4907 174.312C72.8528 173.922 71.7574 174.332 71.5322 175.522C71.307 176.713 72.126 177.554 73.7537 177.78C74.245 177.852 74.9821 177.913 75.2483 177.964L75.883 174.64ZM62.0833 170.71C62.6976 168.648 64.3867 166.575 66.946 167.345C69.5155 168.114 69.7407 170.772 69.1265 172.834L69.0855 172.988C68.4713 175.04 66.8231 177.123 64.2639 176.354C61.7148 175.584 61.4384 172.937 62.0424 170.864L62.0833 170.71ZM66.7105 168.135C65.1954 167.673 63.8339 169.099 63.2094 171.192C62.585 173.286 62.974 175.102 64.4891 175.563C65.9734 176.005 67.335 174.722 67.9594 172.619C68.5839 170.525 68.1949 168.576 66.7105 168.135ZM57.4152 173.85L60.5375 166.165L56.5041 164.523L56.8112 163.774L61.8888 165.846L58.4594 174.291L57.4152 173.86V173.85ZM50.7918 170.926L54.5283 163.528L50.6485 161.557L51.017 160.829L55.9001 163.302L51.8053 171.428L50.7918 170.915V170.926ZM43.3699 165.949L42.9194 166.626L37.4938 162.973L37.9442 162.296L40.1861 163.805L44.8031 156.92L45.7449 157.556L41.1279 164.441L43.3699 165.949ZM33.6446 153.944C35.0061 152.271 37.3504 150.999 39.4286 152.702C41.5067 154.406 40.7082 156.94 39.3467 158.613L39.2443 158.736C37.893 160.398 35.5692 161.691 33.491 159.998C31.4231 158.305 32.1909 155.76 33.5422 154.077L33.6446 153.954V153.944ZM38.9065 153.339C37.678 152.333 35.8865 153.123 34.5045 154.816C33.1225 156.509 32.7949 158.346 34.0234 159.341C35.2211 160.326 36.9717 159.649 38.3537 157.956C39.7357 156.253 40.1145 154.313 38.9167 153.328L38.9065 153.339ZM32.7437 146.864L26.0077 152.979L25.4958 152.415L27.4716 144.155L22.2916 148.865L21.7081 148.218L28.4441 142.103L29.0276 142.739L27.0109 150.896L32.1704 146.218L32.754 146.864H32.7437ZM22.8956 139.066L24.6462 141.426L27.2771 140.636L27.789 141.313L27.7275 141.354L18.4629 144.155L18.3196 143.96L23.6122 135.864L23.6941 135.803L24.4312 136.798L22.8956 139.066ZM23.8272 141.672L22.4145 139.774L20.4592 142.667L23.8272 141.672ZM13.0168 135.875L12.5663 135.156L12.6278 135.115L22.1176 133.053L22.2507 133.258L16.3029 140.923L16.221 140.974L15.5658 139.928L19.9985 134.366L13.0168 135.864V135.875ZM11.1946 132.478L19.1693 128.159L19.7119 129.164L11.7371 133.484L11.1946 132.478ZM16.0981 123.377C15.8627 122.782 15.2485 122.033 14.2862 121.828L12.4742 122.638L13.3853 124.68L12.6482 125.008L11.2765 121.94L13.8972 120.76C15.658 121.058 16.4462 122.156 16.8557 123.079C17.9511 125.532 16.1493 127.563 14.1838 128.446L14.061 128.497C12.0954 129.38 9.35188 129.246 8.25651 126.804C7.83678 125.932 7.7037 124.68 8.62504 123.203L9.53615 123.859L9.58733 123.972C8.56362 125.039 8.73765 125.86 9.00382 126.445C9.63852 127.861 11.6655 128.271 13.6617 127.379C15.658 126.486 16.7021 124.844 16.0981 123.356V123.377ZM11.1639 115.743L12.0954 118.534L14.839 118.606L15.1051 119.416L15.0335 119.437L5.34916 119.211L5.26726 118.975L12.812 112.921L12.9042 112.89L13.3034 114.07L11.1434 115.743H11.1639ZM11.2355 118.513L10.4882 116.277L7.73441 118.411L11.2457 118.513H11.2355ZM5.09323 115.589L4.30497 115.794L2.68751 109.443L3.47577 109.248L4.14118 111.875L12.1671 109.822L12.4435 110.92L4.41758 112.973L5.083 115.599L5.09323 115.589ZM10.3449 105.185L9.62828 100.875L10.4268 100.742L11.3174 106.159L2.34968 107.647L1.5 102.517L2.2985 102.383L2.96391 106.416L5.96339 105.913L5.43106 102.681L6.22955 102.548L6.76189 105.78L10.3244 105.185H10.3449Z" fill="white"/>
</g>
</g>
<rect x="22" y="22.6094" width="136" height="136" rx="68" fill="#D7BE68"/>
<g clip-path="url(#clip2_2_41)">
<g clip-path="url(#clip3_2_41)">
<path fill-rule="evenodd" clip-rule="evenodd" d="M89.3535 100.902V78.1094H90.3535V100.902L94.5 96.7558L95.2071 97.463L89.8535 102.816L84.5 97.463L85.2071 96.7558L89.3535 100.902Z" fill="#232121"/>
</g>
</g>
<defs>
<clipPath id="clip0_2_41">
<rect width="179" height="179" fill="white" transform="translate(0.5 1.10938)"/>
</clipPath>
<clipPath id="clip1_2_41">
<rect width="179" height="179" fill="white" transform="translate(0.5 1.10938)"/>
</clipPath>
<clipPath id="clip2_2_41">
<rect width="11" height="25" fill="white" transform="translate(84.5 78.1094)"/>
</clipPath>
<clipPath id="clip3_2_41">
<rect width="11" height="25" fill="white" transform="translate(84.5 78.1094)"/>
</clipPath>
</defs>
</svg>
